# 3ds Max Wavefront OBJ Exporter v0.97b - (c)2007 guruware
# 创建的文件:19.12.2019 16:46:39

mtllib mid_board.mtl

#
# object Obj3d66_387479_24_457
#

v  97.4111 73.2723 -64.5127
v  97.4111 73.2723 -90.6314
v  -58.5382 73.2723 -90.6314
v  -58.5382 73.2723 -64.5127
v  -58.5382 73.2492 -90.7421
v  -58.5737 73.2492 -90.7272
v  -58.5997 73.2492 -90.6867
v  -58.6093 73.2492 -90.6314
v  -58.6092 73.2492 -64.5127
v  -58.5997 73.2492 -64.4573
v  -58.5737 73.2492 -64.4168
v  -58.5382 73.2492 -64.4020
v  97.4111 73.2492 -64.4020
v  97.4466 73.2492 -64.4168
v  97.4726 73.2492 -64.4573
v  97.4821 73.2492 -64.5127
v  97.4821 73.2492 -90.6314
v  97.4726 73.2492 -90.6867
v  97.4466 73.2492 -90.7272
v  97.4111 73.2492 -90.7421
v  -58.5997 73.1863 -90.7974
v  -58.5382 73.1863 -90.8231
v  -58.6448 73.1863 -90.7272
v  -58.6612 73.1863 -90.6314
v  -58.6612 73.1863 -64.5127
v  -58.6448 73.1863 -64.4168
v  -58.5997 73.1863 -64.3467
v  -58.5382 73.1863 -64.3210
v  97.4111 73.1863 -64.3210
v  97.4726 73.1863 -64.3467
v  97.5176 73.1863 -64.4168
v  97.5341 73.1863 -64.5127
v  97.5341 73.1863 -90.6314
v  97.5176 73.1863 -90.7272
v  97.4726 73.1863 -90.7974
v  97.4111 73.1863 -90.8231
v  -58.6093 73.1004 -90.8231
v  -58.5382 73.1004 -90.8527
v  -58.6612 73.1004 -90.7421
v  -58.6803 73.1004 -90.6314
v  -58.6803 73.1004 -64.5127
v  -58.6612 73.1004 -64.4020
v  -58.6092 73.1004 -64.3210
v  -58.5382 73.1004 -64.2913
v  97.4111 73.1004 -64.2913
v  97.4821 73.1004 -64.3210
v  97.5341 73.1004 -64.4020
v  97.5532 73.1004 -64.5127
v  97.5531 73.1004 -90.6314
v  97.5341 73.1004 -90.7421
v  97.4821 73.1004 -90.8231
v  97.4111 73.1004 -90.8527
v  -58.6093 70.6942 -90.8231
v  -58.5382 70.6942 -90.8527
v  -58.6612 70.6942 -90.7421
v  -58.6803 70.6942 -90.6314
v  -58.6803 70.6942 -64.5127
v  -58.6612 70.6942 -64.4020
v  -58.6092 70.6942 -64.3210
v  -58.5382 70.6942 -64.2913
v  97.4111 70.6942 -64.2913
v  97.4821 70.6942 -64.3210
v  97.5341 70.6942 -64.4020
v  97.5532 70.6942 -64.5127
v  97.5531 70.6942 -90.6314
v  97.5341 70.6942 -90.7421
v  97.4821 70.6942 -90.8231
v  97.4111 70.6942 -90.8527
v  -58.5997 70.6082 -90.7974
v  -58.5382 70.6082 -90.8231
v  -58.6448 70.6082 -90.7272
v  -58.6612 70.6082 -90.6314
v  -58.6612 70.6082 -64.5127
v  -58.6448 70.6082 -64.4168
v  -58.5997 70.6082 -64.3467
v  -58.5382 70.6082 -64.3210
v  97.4111 70.6082 -64.3210
v  97.4726 70.6082 -64.3467
v  97.5176 70.6082 -64.4168
v  97.5341 70.6082 -64.5127
v  97.5341 70.6082 -90.6314
v  97.5176 70.6082 -90.7272
v  97.4726 70.6082 -90.7974
v  97.4111 70.6082 -90.8231
v  -58.5737 70.5453 -90.7272
v  -58.5382 70.5453 -90.7421
v  -58.5997 70.5453 -90.6867
v  -58.6093 70.5453 -90.6314
v  -58.6092 70.5453 -64.5127
v  -58.5997 70.5453 -64.4573
v  -58.5737 70.5453 -64.4168
v  -58.5382 70.5453 -64.4020
v  97.4111 70.5453 -64.4020
v  97.4466 70.5453 -64.4168
v  97.4726 70.5453 -64.4573
v  97.4821 70.5453 -64.5127
v  97.4821 70.5453 -90.6314
v  97.4726 70.5453 -90.6867
v  97.4466 70.5453 -90.7272
v  97.4111 70.5453 -90.7421
v  -58.5382 70.5223 -90.6314
v  -58.5382 70.5223 -64.5127
v  97.4111 70.5223 -64.5127
v  97.4111 70.5223 -90.6314
# 104 vertices

vn 0.1364 0.9873 0.0809
vn 0.1364 0.9873 -0.0809
vn -0.1364 0.9873 -0.0809
vn -0.1364 0.9873 0.0809
vn -0.0943 0.8934 -0.4392
vn -0.3384 0.8643 -0.3721
vn -0.5253 0.8287 -0.1929
vn -0.5713 0.8193 -0.0494
vn -0.5713 0.8193 0.0494
vn -0.5254 0.8287 0.1928
vn -0.3384 0.8643 0.3721
vn -0.0943 0.8934 0.4392
vn 0.0942 0.8934 0.4392
vn 0.3383 0.8643 0.3721
vn 0.5253 0.8288 0.1928
vn 0.5713 0.8193 0.0494
vn 0.5713 0.8192 -0.0494
vn 0.5253 0.8288 -0.1929
vn 0.3384 0.8643 -0.3721
vn 0.0942 0.8934 -0.4392
vn -0.5493 0.5165 -0.6569
vn -0.1621 0.5601 -0.8124
vn -0.8285 0.4554 -0.3259
vn -0.8983 0.4328 -0.0761
vn -0.8983 0.4328 0.0761
vn -0.8285 0.4553 0.3259
vn -0.5493 0.5165 0.6569
vn -0.1622 0.5601 0.8124
vn 0.1621 0.5601 0.8124
vn 0.5493 0.5165 0.6569
vn 0.8285 0.4554 0.3259
vn 0.8982 0.4329 0.0760
vn 0.8983 0.4328 -0.0761
vn 0.8286 0.4553 -0.3258
vn 0.5493 0.5165 -0.6569
vn 0.1621 0.5601 -0.8124
vn -0.6296 0.1423 -0.7638
vn -0.1905 0.1595 -0.9687
vn -0.9239 0.1168 -0.3643
vn -0.9906 0.1077 -0.0841
vn -0.9906 0.1077 0.0841
vn -0.9239 0.1168 0.3643
vn -0.6296 0.1423 0.7638
vn -0.1905 0.1595 0.9687
vn 0.1905 0.1595 0.9686
vn 0.6296 0.1423 0.7638
vn 0.9239 0.1168 0.3644
vn 0.9906 0.1078 0.0841
vn 0.9906 0.1079 -0.0842
vn 0.9239 0.1168 -0.3643
vn 0.6296 0.1423 -0.7638
vn 0.1905 0.1595 -0.9687
vn -0.6296 -0.1423 -0.7638
vn -0.1905 -0.1595 -0.9687
vn -0.9239 -0.1168 -0.3643
vn -0.9906 -0.1077 -0.0841
vn -0.9906 -0.1077 0.0841
vn -0.9239 -0.1168 0.3643
vn -0.6296 -0.1423 0.7638
vn -0.1905 -0.1595 0.9687
vn 0.1905 -0.1595 0.9687
vn 0.6296 -0.1423 0.7638
vn 0.9239 -0.1168 0.3644
vn 0.9906 -0.1079 0.0842
vn 0.9906 -0.1078 -0.0841
vn 0.9239 -0.1168 -0.3644
vn 0.6296 -0.1423 -0.7638
vn 0.1905 -0.1595 -0.9687
vn -0.5493 -0.5165 -0.6569
vn -0.1622 -0.5601 -0.8124
vn -0.8285 -0.4553 -0.3259
vn -0.8983 -0.4328 -0.0761
vn -0.8983 -0.4328 0.0761
vn -0.8285 -0.4553 0.3259
vn -0.5493 -0.5165 0.6569
vn -0.1622 -0.5601 0.8124
vn 0.1621 -0.5601 0.8124
vn 0.5493 -0.5165 0.6569
vn 0.8285 -0.4553 0.3259
vn 0.8982 -0.4329 0.0761
vn 0.8982 -0.4329 -0.0761
vn 0.8285 -0.4553 -0.3259
vn 0.5493 -0.5165 -0.6569
vn 0.1621 -0.5601 -0.8124
vn -0.3383 -0.8643 -0.3721
vn -0.0943 -0.8934 -0.4392
vn -0.5254 -0.8287 -0.1929
vn -0.5713 -0.8193 -0.0494
vn -0.5713 -0.8193 0.0494
vn -0.5254 -0.8287 0.1928
vn -0.3384 -0.8643 0.3721
vn -0.0943 -0.8934 0.4392
vn 0.0942 -0.8934 0.4392
vn 0.3383 -0.8643 0.3721
vn 0.5253 -0.8288 0.1928
vn 0.5713 -0.8193 0.0494
vn 0.5713 -0.8192 -0.0494
vn 0.5254 -0.8287 -0.1928
vn 0.3384 -0.8643 -0.3721
vn 0.0942 -0.8934 -0.4392
vn -0.1364 -0.9873 -0.0809
vn -0.1364 -0.9873 0.0809
vn 0.1364 -0.9873 0.0809
vn 0.1364 -0.9873 -0.0809
# 104 vertex normals

vt 0.9991 0.0083 0.0000
vt 0.9991 0.9917 0.0000
vt 0.0009 0.9917 0.0000
vt 0.0009 0.0083 0.0000
vt 0.0009 0.9958 0.0000
vt 0.0007 0.9953 0.0000
vt 0.0005 0.9938 0.0000
vt 0.0005 0.9917 0.0000
vt 0.0005 0.0083 0.0000
vt 0.0005 0.0062 0.0000
vt 0.0007 0.0047 0.0000
vt 0.0009 0.0042 0.0000
vt 0.9991 0.0042 0.0000
vt 0.9993 0.0047 0.0000
vt 0.9995 0.0062 0.0000
vt 0.9995 0.0083 0.0000
vt 0.9995 0.9917 0.0000
vt 0.9995 0.9938 0.0000
vt 0.9993 0.9953 0.0000
vt 0.9991 0.9958 0.0000
vt 0.0005 0.9979 0.0000
vt 0.0009 0.9989 0.0000
vt 0.0002 0.9953 0.0000
vt 0.0001 0.9917 0.0000
vt 0.0001 0.0083 0.0000
vt 0.0002 0.0047 0.0000
vt 0.0005 0.0021 0.0000
vt 0.0009 0.0011 0.0000
vt 0.9991 0.0011 0.0000
vt 0.9995 0.0021 0.0000
vt 0.9998 0.0047 0.0000
vt 0.9999 0.0083 0.0000
vt 0.9999 0.9917 0.0000
vt 0.9998 0.9953 0.0000
vt 0.9995 0.9979 0.0000
vt 0.9991 0.9989 0.0000
vt 0.0005 0.9989 0.0000
vt 0.0009 1.0000 0.0000
vt 0.0001 0.9958 0.0000
vt 0.0000 0.9917 0.0000
vt 0.0000 0.0083 0.0000
vt 0.0001 0.0042 0.0000
vt 0.0005 0.0011 0.0000
vt 0.0009 0.0000 0.0000
vt 0.9991 0.0000 0.0000
vt 0.9995 0.0011 0.0000
vt 0.9999 0.0042 0.0000
vt 1.0000 0.0083 0.0000
vt 1.0000 0.9917 0.0000
vt 0.9999 0.9958 0.0000
vt 0.9995 0.9989 0.0000
vt 0.9991 1.0000 0.0000
vt 0.0002 0.0000 0.0000
vt 0.0002 1.0000 0.0000
vt 0.0000 1.0000 0.0000
vt 0.0000 0.0000 0.0000
vt 0.0004 0.0000 0.0000
vt 0.0004 1.0000 0.0000
vt 0.0006 0.0000 0.0000
vt 0.0006 1.0000 0.0000
vt 0.0490 0.0000 0.0000
vt 0.0490 1.0000 0.0000
vt 0.0492 0.0000 0.0000
vt 0.0492 1.0000 0.0000
vt 0.0494 0.0000 0.0000
vt 0.0494 1.0000 0.0000
vt 0.0496 0.0000 0.0000
vt 0.0496 1.0000 0.0000
vt 0.4992 0.0000 0.0000
vt 0.4992 1.0000 0.0000
vt 0.4994 0.0000 0.0000
vt 0.4994 1.0000 0.0000
vt 0.4996 0.0000 0.0000
vt 0.4996 1.0000 0.0000
vt 0.4998 0.0000 0.0000
vt 0.4998 1.0000 0.0000
vt 0.5481 0.0000 0.0000
vt 0.5481 1.0000 0.0000
vt 0.5483 0.0000 0.0000
vt 0.5483 1.0000 0.0000
vt 0.5486 0.0000 0.0000
vt 0.5486 1.0000 0.0000
vt 0.5488 0.0000 0.0000
vt 0.5488 1.0000 0.0000
vt 1.0000 0.0000 0.0000
vt 1.0000 1.0000 0.0000
# 86 texture coords

o Obj3d66_387479_24_457
g Obj3d66_387479_24_457
usemtl wire_008060138
s 1
f 1/1/1 2/2/2 3/3/3 
f 3/3/3 4/4/4 1/1/1 
f 3/3/3 5/5/5 6/6/6 
f 3/3/3 6/6/6 7/7/7 
f 3/3/3 7/7/7 8/8/8 
f 9/9/9 4/4/4 3/3/3 
f 3/3/3 8/8/8 9/9/9 
f 4/4/4 9/9/9 10/10/10 
f 4/4/4 10/10/10 11/11/11 
f 4/4/4 11/11/11 12/12/12 
f 13/13/13 1/1/1 4/4/4 
f 4/4/4 12/12/12 13/13/13 
f 1/1/1 13/13/13 14/14/14 
f 1/1/1 14/14/14 15/15/15 
f 1/1/1 15/15/15 16/16/16 
f 17/17/17 2/2/2 1/1/1 
f 1/1/1 16/16/16 17/17/17 
f 2/2/2 17/17/17 18/18/18 
f 2/2/2 18/18/18 19/19/19 
f 2/2/2 19/19/19 20/20/20 
f 5/5/5 3/3/3 2/2/2 
f 2/2/2 20/20/20 5/5/5 
f 21/21/21 6/6/6 5/5/5 
f 5/5/5 22/22/22 21/21/21 
f 23/23/23 7/7/7 6/6/6 
f 6/6/6 21/21/21 23/23/23 
f 24/24/24 8/8/8 7/7/7 
f 7/7/7 23/23/23 24/24/24 
f 25/25/25 9/9/9 8/8/8 
f 8/8/8 24/24/24 25/25/25 
f 26/26/26 10/10/10 9/9/9 
f 9/9/9 25/25/25 26/26/26 
f 27/27/27 11/11/11 10/10/10 
f 10/10/10 26/26/26 27/27/27 
f 28/28/28 12/12/12 11/11/11 
f 11/11/11 27/27/27 28/28/28 
f 29/29/29 13/13/13 12/12/12 
f 12/12/12 28/28/28 29/29/29 
f 30/30/30 14/14/14 13/13/13 
f 13/13/13 29/29/29 30/30/30 
f 31/31/31 15/15/15 14/14/14 
f 14/14/14 30/30/30 31/31/31 
f 32/32/32 16/16/16 15/15/15 
f 15/15/15 31/31/31 32/32/32 
f 33/33/33 17/17/17 16/16/16 
f 16/16/16 32/32/32 33/33/33 
f 34/34/34 18/18/18 17/17/17 
f 17/17/17 33/33/33 34/34/34 
f 35/35/35 19/19/19 18/18/18 
f 18/18/18 34/34/34 35/35/35 
f 36/36/36 20/20/20 19/19/19 
f 19/19/19 35/35/35 36/36/36 
f 22/22/22 5/5/5 20/20/20 
f 20/20/20 36/36/36 22/22/22 
f 37/37/37 21/21/21 22/22/22 
f 22/22/22 38/38/38 37/37/37 
f 39/39/39 23/23/23 21/21/21 
f 21/21/21 37/37/37 39/39/39 
f 40/40/40 24/24/24 23/23/23 
f 23/23/23 39/39/39 40/40/40 
f 41/41/41 25/25/25 24/24/24 
f 24/24/24 40/40/40 41/41/41 
f 42/42/42 26/26/26 25/25/25 
f 25/25/25 41/41/41 42/42/42 
f 43/43/43 27/27/27 26/26/26 
f 26/26/26 42/42/42 43/43/43 
f 44/44/44 28/28/28 27/27/27 
f 27/27/27 43/43/43 44/44/44 
f 45/45/45 29/29/29 28/28/28 
f 28/28/28 44/44/44 45/45/45 
f 46/46/46 30/30/30 29/29/29 
f 29/29/29 45/45/45 46/46/46 
f 47/47/47 31/31/31 30/30/30 
f 30/30/30 46/46/46 47/47/47 
f 48/48/48 32/32/32 31/31/31 
f 31/31/31 47/47/47 48/48/48 
f 49/49/49 33/33/33 32/32/32 
f 32/32/32 48/48/48 49/49/49 
f 50/50/50 34/34/34 33/33/33 
f 33/33/33 49/49/49 50/50/50 
f 51/51/51 35/35/35 34/34/34 
f 34/34/34 50/50/50 51/51/51 
f 52/52/52 36/36/36 35/35/35 
f 35/35/35 51/51/51 52/52/52 
f 38/38/38 22/22/22 36/36/36 
f 36/36/36 52/52/52 38/38/38 
f 53/53/53 37/54/37 38/55/38 
f 38/55/38 54/56/54 53/53/53 
f 55/57/55 39/58/39 37/54/37 
f 37/54/37 53/53/53 55/57/55 
f 56/59/56 40/60/40 39/58/39 
f 39/58/39 55/57/55 56/59/56 
f 57/61/57 41/62/41 40/60/40 
f 40/60/40 56/59/56 57/61/57 
f 58/63/58 42/64/42 41/62/41 
f 41/62/41 57/61/57 58/63/58 
f 59/65/59 43/66/43 42/64/42 
f 42/64/42 58/63/58 59/65/59 
f 60/67/60 44/68/44 43/66/43 
f 43/66/43 59/65/59 60/67/60 
f 61/69/61 45/70/45 44/68/44 
f 44/68/44 60/67/60 61/69/61 
f 62/71/62 46/72/46 45/70/45 
f 45/70/45 61/69/61 62/71/62 
f 63/73/63 47/74/47 46/72/46 
f 46/72/46 62/71/62 63/73/63 
f 64/75/64 48/76/48 47/74/47 
f 47/74/47 63/73/63 64/75/64 
f 65/77/65 49/78/49 48/76/48 
f 48/76/48 64/75/64 65/77/65 
f 66/79/66 50/80/50 49/78/49 
f 49/78/49 65/77/65 66/79/66 
f 67/81/67 51/82/51 50/80/50 
f 50/80/50 66/79/66 67/81/67 
f 68/83/68 52/84/52 51/82/51 
f 51/82/51 67/81/67 68/83/68 
f 54/85/54 38/86/38 52/84/52 
f 52/84/52 68/83/68 54/85/54 
f 69/27/69 53/43/53 54/44/54 
f 54/44/54 70/28/70 69/27/69 
f 71/26/71 55/42/55 53/43/53 
f 53/43/53 69/27/69 71/26/71 
f 72/25/72 56/41/56 55/42/55 
f 55/42/55 71/26/71 72/25/72 
f 73/24/73 57/40/57 56/41/56 
f 56/41/56 72/25/72 73/24/73 
f 74/23/74 58/39/58 57/40/57 
f 57/40/57 73/24/73 74/23/74 
f 75/21/75 59/37/59 58/39/58 
f 58/39/58 74/23/74 75/21/75 
f 76/22/76 60/38/60 59/37/59 
f 59/37/59 75/21/75 76/22/76 
f 77/36/77 61/52/61 60/38/60 
f 60/38/60 76/22/76 77/36/77 
f 78/35/78 62/51/62 61/52/61 
f 61/52/61 77/36/77 78/35/78 
f 79/34/79 63/50/63 62/51/62 
f 62/51/62 78/35/78 79/34/79 
f 80/33/80 64/49/64 63/50/63 
f 63/50/63 79/34/79 80/33/80 
f 81/32/81 65/48/65 64/49/64 
f 64/49/64 80/33/80 81/32/81 
f 82/31/82 66/47/66 65/48/65 
f 65/48/65 81/32/81 82/31/82 
f 83/30/83 67/46/67 66/47/66 
f 66/47/66 82/31/82 83/30/83 
f 84/29/84 68/45/68 67/46/67 
f 67/46/67 83/30/83 84/29/84 
f 70/28/70 54/44/54 68/45/68 
f 68/45/68 84/29/84 70/28/70 
f 85/11/85 69/27/69 70/28/70 
f 70/28/70 86/12/86 85/11/85 
f 87/10/87 71/26/71 69/27/69 
f 69/27/69 85/11/85 87/10/87 
f 88/9/88 72/25/72 71/26/71 
f 71/26/71 87/10/87 88/9/88 
f 89/8/89 73/24/73 72/25/72 
f 72/25/72 88/9/88 89/8/89 
f 90/7/90 74/23/74 73/24/73 
f 73/24/73 89/8/89 90/7/90 
f 91/6/91 75/21/75 74/23/74 
f 74/23/74 90/7/90 91/6/91 
f 92/5/92 76/22/76 75/21/75 
f 75/21/75 91/6/91 92/5/92 
f 93/20/93 77/36/77 76/22/76 
f 76/22/76 92/5/92 93/20/93 
f 94/19/94 78/35/78 77/36/77 
f 77/36/77 93/20/93 94/19/94 
f 95/18/95 79/34/79 78/35/78 
f 78/35/78 94/19/94 95/18/95 
f 96/17/96 80/33/80 79/34/79 
f 79/34/79 95/18/95 96/17/96 
f 97/16/97 81/32/81 80/33/80 
f 80/33/80 96/17/96 97/16/97 
f 98/15/98 82/31/82 81/32/81 
f 81/32/81 97/16/97 98/15/98 
f 99/14/99 83/30/83 82/31/82 
f 82/31/82 98/15/98 99/14/99 
f 100/13/100 84/29/84 83/30/83 
f 83/30/83 99/14/99 100/13/100 
f 86/12/86 70/28/70 84/29/84 
f 84/29/84 100/13/100 86/12/86 
f 86/12/86 101/4/101 85/11/85 
f 85/11/85 101/4/101 87/10/87 
f 87/10/87 101/4/101 88/9/88 
f 102/3/102 89/8/89 88/9/88 
f 88/9/88 101/4/101 102/3/102 
f 89/8/89 102/3/102 90/7/90 
f 90/7/90 102/3/102 91/6/91 
f 91/6/91 102/3/102 92/5/92 
f 103/2/103 93/20/93 92/5/92 
f 92/5/92 102/3/102 103/2/103 
f 93/20/93 103/2/103 94/19/94 
f 94/19/94 103/2/103 95/18/95 
f 95/18/95 103/2/103 96/17/96 
f 104/1/104 97/16/97 96/17/96 
f 96/17/96 103/2/103 104/1/104 
f 97/16/97 104/1/104 98/15/98 
f 98/15/98 104/1/104 99/14/99 
f 99/14/99 104/1/104 100/13/100 
f 101/4/101 86/12/86 100/13/100 
f 100/13/100 104/1/104 101/4/101 
f 102/3/102 101/4/101 104/1/104 
f 104/1/104 103/2/103 102/3/102 
# 204 faces

